<svg width="28" height="28" viewBox="0 0 28 28" fill="none" xmlns="http://www.w3.org/2000/svg">
<circle cx="14" cy="14" r="14" fill="#3369F3"/>
<path d="M5.6442 13.6152C5.48211 13.6717 5.32584 13.7429 5.17749 13.8281C5.13087 13.8506 5.09049 13.8838 5.05973 13.9247C5.02897 13.9657 5.00874 14.0132 5.00073 14.0634C4.99329 14.1551 5.04283 14.2469 5.14753 14.3361C5.23461 14.4055 5.32846 14.4664 5.42772 14.518C5.50386 14.5604 5.5814 14.6005 5.65894 14.6406C5.76994 14.698 5.88474 14.757 5.99169 14.8225C7.44192 15.708 8.76163 16.493 10.209 17.1274C10.2059 17.1779 10.2025 17.2283 10.1989 17.2785C10.1891 17.4203 10.179 17.5669 10.1788 17.7116C10.1785 17.9302 10.1776 18.1488 10.1761 18.3676C10.1724 19.0614 10.1686 19.7789 10.1925 20.4844C10.2011 20.7388 10.2947 20.9207 10.456 20.9965C10.6256 21.076 10.8437 21.0297 11.07 20.8655C11.1516 20.8063 11.2352 20.7397 11.3256 20.662C11.7221 20.3209 12.118 19.9792 12.5177 19.6342L12.8799 19.3215C12.8826 19.3235 12.8853 19.3255 12.8878 19.3276L13.2227 19.6087C13.604 19.9285 13.9982 20.2591 14.383 20.5878C14.4927 20.6811 14.6029 20.774 14.7138 20.8664C15.0517 21.1495 15.4014 21.4422 15.7155 21.7559C15.882 21.9219 16.0438 22 16.2382 22C16.3221 21.9988 16.4054 21.9867 16.4861 21.9642C16.7697 21.8889 16.9527 21.7197 17.0796 21.4165C17.5575 20.2737 18.0467 19.113 18.5195 17.9906C18.9078 17.0686 19.2958 16.1465 19.6834 15.2243C20.5185 13.2446 21.239 11.2207 21.8413 9.16213C21.9143 8.92336 21.9656 8.67877 21.9947 8.43122C22.0044 8.37386 22.0008 8.3151 21.9842 8.25929C21.9674 8.20347 21.9381 8.15203 21.8984 8.10876C21.8504 8.06654 21.7933 8.03532 21.7313 8.01741C21.6695 7.9995 21.6042 7.99534 21.5404 8.00524C21.456 8.01513 21.3727 8.03347 21.292 8.06L21.2811 8.06323C21.1 8.11594 20.9183 8.16714 20.7366 8.21842C20.3145 8.33748 19.8781 8.46059 19.4546 8.60094C16.3958 9.6153 13.2936 10.7196 10.2341 11.8832C9.3517 12.2187 8.45322 12.557 7.58429 12.8841C6.93722 13.1273 6.29052 13.371 5.6442 13.6152ZM11.467 16.7423C11.6354 16.605 11.7951 16.4753 11.9589 16.3534C12.6013 15.8748 13.2442 15.397 13.8878 14.9201C15.1523 13.9817 16.4599 13.0114 17.7389 12.0478C18.13 11.7534 18.5011 11.4225 18.86 11.103C18.9833 10.9935 19.1065 10.8834 19.2306 10.7749C19.3297 10.6884 19.4954 10.5436 19.4035 10.2607C19.4005 10.2515 19.3956 10.2429 19.3891 10.2356C19.3825 10.2283 19.3745 10.2224 19.3656 10.2183C19.3566 10.2142 19.3468 10.212 19.3368 10.2117C19.3269 10.2114 19.3171 10.2131 19.3078 10.2167C19.2695 10.2318 19.2324 10.2452 19.1967 10.2578C19.1223 10.2826 19.0499 10.3125 18.9799 10.3475C16.6065 11.605 14.5418 13.2539 12.5453 14.8487C12.0937 15.2093 11.6681 15.5812 11.218 15.9746C11.0268 16.1418 10.8337 16.3096 10.6387 16.4781L6.18543 14.1243C6.2111 14.1089 6.23804 14.0955 6.26599 14.0845C6.9822 13.8213 7.69814 13.5573 8.41378 13.2922C10.1662 12.6445 11.9785 11.9748 13.7683 11.3376C15.3624 10.7702 16.9936 10.2205 18.571 9.68888C19.0955 9.51215 19.62 9.33508 20.1442 9.15767C20.3474 9.0888 20.5524 9.03492 20.7696 8.97796C20.827 8.96289 20.8848 8.94763 20.9428 8.93216C20.0688 11.6348 18.954 14.2856 17.8752 16.8506C17.3082 18.1984 16.7225 19.591 16.1748 20.983C14.6861 19.8135 13.2421 18.5773 11.8452 17.3811C11.6566 17.2194 11.4675 17.0577 11.278 16.8958C11.3424 16.8434 11.4053 16.7924 11.4668 16.7423H11.467ZM12.2944 18.8039L11.0173 19.8597L10.916 17.5616L12.2944 18.8039Z" fill="white"/>
</svg>
